<svg width="181" height="35" viewBox="0 0 181 35" fill="none" xmlns="http://www.w3.org/2000/svg">
<path d="M67.1835 14.345C67.1835 15.6917 66.0801 16.7812 64.7162 16.7812C63.3523 16.7812 62.2489 15.6917 62.2489 14.345C62.2489 12.9983 63.3523 11.9088 64.7162 11.9088C66.0801 11.9088 67.1835 12.9983 67.1835 14.345ZM42.6333 23.5603C42.9858 24.559 43.1697 25.6485 43.1697 26.8288C43.1697 28.0242 42.9858 29.1288 42.6333 30.1275C42.2808 31.1262 41.7598 31.9888 41.0855 32.7C40.4112 33.4112 39.5837 33.9862 38.6029 34.3947C37.6221 34.8033 36.5034 35.0151 35.2468 35.0151C33.9902 35.0151 32.8715 34.8033 31.8907 34.3947C30.9099 33.9862 30.0824 33.4263 29.4081 32.7C28.7338 31.9888 28.2128 31.1262 27.8603 30.1275C27.5078 29.1288 27.3239 28.0242 27.3239 26.8288C27.3239 25.6485 27.5078 24.559 27.8603 23.5603C28.2128 22.5616 28.7338 21.6991 29.4081 20.9879C30.0824 20.2767 30.9099 19.7017 31.8907 19.2931C32.8715 18.8846 33.9902 18.6727 35.2468 18.6727C36.5034 18.6727 37.6221 18.8846 38.6029 19.2931C39.5837 19.7017 40.4112 20.2616 41.0855 20.9879C41.7598 21.6991 42.2808 22.5616 42.6333 23.5603ZM39.7063 26.8288C39.7063 26.163 39.6143 25.5123 39.4458 24.8465C39.2772 24.1807 39.0014 23.6057 38.6489 23.0912C38.2811 22.5767 37.8214 22.1682 37.2543 21.8504C36.6873 21.5326 36.0284 21.3662 35.2468 21.3662C34.4806 21.3662 33.8063 21.5326 33.2393 21.8504C32.6723 22.1682 32.2125 22.5767 31.8447 23.0912C31.4769 23.6057 31.2164 24.1807 31.0478 24.8465C30.8793 25.5123 30.7873 26.163 30.7873 26.8288C30.7873 27.5097 30.8793 28.1755 31.0478 28.8262C31.2164 29.4769 31.4923 30.0519 31.8447 30.5815C32.2125 31.096 32.6723 31.5197 33.2393 31.8374C33.8063 32.1552 34.4652 32.3217 35.2468 32.3217C36.013 32.3217 36.6873 32.1552 37.2543 31.8374C37.8214 31.5197 38.2811 31.096 38.6489 30.5815C39.0167 30.067 39.2772 29.4769 39.4458 28.8262C39.6143 28.1604 39.7063 27.4946 39.7063 26.8288ZM50.2344 22.4406C50.6634 22.032 51.1232 21.7445 51.6289 21.6083C52.1346 21.457 52.6097 21.3813 53.0541 21.3813C54.0196 21.3813 54.8318 21.6234 55.4601 22.1077C56.1037 22.5919 56.4868 23.3182 56.6248 24.2715H60.0881C60.0115 23.3182 59.7663 22.486 59.3679 21.7899C58.9694 21.0938 58.4484 20.5188 57.8048 20.0497C57.1611 19.5958 56.4409 19.2477 55.6287 19.0208C54.8164 18.7938 53.9429 18.6727 53.0388 18.6727C51.7515 18.6727 50.6175 18.8846 49.652 19.3234C48.6866 19.7471 47.8897 20.3372 47.246 21.0938C46.6024 21.8353 46.112 22.7281 45.7902 23.7419C45.4684 24.7557 45.2998 25.8452 45.2998 27.0104C45.2998 28.1453 45.4684 29.2045 45.8055 30.1881C46.1427 31.1716 46.6331 32.0039 47.2767 32.7151C47.9203 33.4263 48.7172 33.9862 49.652 34.3947C50.5868 34.8033 51.6749 35.0151 52.9162 35.0151C54.939 35.0151 56.5635 34.4855 57.7894 33.4112C59.0154 32.3368 59.7816 30.8085 60.1035 28.7808H56.6401C56.4715 29.9006 56.0731 30.7631 55.4141 31.3835C54.7551 32.0039 53.9276 32.3065 52.9162 32.3065C52.1653 32.3065 51.537 32.1552 51.0006 31.8374C50.4795 31.5348 50.0505 31.1262 49.7133 30.6269C49.3762 30.1275 49.131 29.5525 48.9931 28.917C48.8398 28.2815 48.7632 27.6459 48.7632 26.9952C48.7632 25.815 48.9011 24.8617 49.1923 24.1353C49.4528 23.409 49.8053 22.8491 50.2344 22.4406ZM62.9998 34.5763H66.4632V19.0964H62.9998V34.5763ZM84.531 32.3065C84.6689 32.3065 84.8375 32.2914 85.0214 32.246V34.6066C84.8988 34.652 84.7456 34.6974 84.5464 34.7428C84.3471 34.7882 84.1632 34.8335 83.9487 34.8789C83.7495 34.9243 83.5502 34.9546 83.3357 34.9697C83.1365 34.9849 82.9679 35 82.8147 35C82.1097 35 81.5274 34.8638 81.0523 34.5763C80.5926 34.3039 80.2861 33.8046 80.1482 33.1085C79.4586 33.7743 78.6157 34.2434 77.6196 34.546C76.6235 34.8487 75.658 35 74.7232 35C74.0183 35 73.344 34.9092 72.685 34.7125C72.0414 34.5158 71.4744 34.2434 70.9687 33.8802C70.4783 33.5171 70.0798 33.048 69.7887 32.473C69.4975 31.898 69.3443 31.2473 69.3443 30.4756C69.3443 29.5223 69.5282 28.7354 69.8806 28.1453C70.2331 27.54 70.6928 27.0709 71.2752 26.738C71.8575 26.4051 72.5011 26.1479 73.2214 26.0117C73.9417 25.8604 74.6619 25.7544 75.3822 25.6636C76.0105 25.5426 76.6082 25.4518 77.1752 25.4064C77.7422 25.361 78.2479 25.2702 78.677 25.1492C79.1061 25.0281 79.4585 24.8465 79.7037 24.5893C79.9489 24.3472 80.0869 23.9689 80.0869 23.4695C80.0869 23.0307 79.9796 22.6675 79.765 22.3952C79.5505 22.1228 79.29 21.8958 78.9835 21.7445C78.677 21.5932 78.3245 21.5024 77.9414 21.4419C77.5583 21.3965 77.1905 21.3662 76.8534 21.3662C75.8879 21.3662 75.091 21.5629 74.4627 21.9715C73.8344 22.3649 73.4819 22.9853 73.4053 23.8327H69.9419C70.0032 22.834 70.2484 22.0017 70.6622 21.3511C71.0913 20.6853 71.6276 20.1708 72.2866 19.7622C72.9456 19.3688 73.6811 19.0813 74.5087 18.93C75.3362 18.7635 76.1791 18.6879 77.0526 18.6879C77.8188 18.6879 78.585 18.7635 79.3206 18.93C80.0715 19.0964 80.7458 19.3537 81.3435 19.7017C81.9412 20.0649 82.4162 20.5188 82.784 21.0938C83.1518 21.6688 83.3357 22.3498 83.3357 23.182V31.1414C83.3357 31.5651 83.397 31.8526 83.5043 32.0342C83.6115 32.2157 83.8261 32.3065 84.1632 32.3065C84.2552 32.3065 84.3778 32.3065 84.531 32.3065ZM79.8876 26.8288C79.3666 27.1617 78.7076 27.3735 77.9414 27.4492C77.1752 27.5249 76.4089 27.6308 75.6427 27.767C75.2749 27.8275 74.9224 27.9183 74.5853 28.0242C74.2482 28.1301 73.9417 28.2815 73.6811 28.4782C73.4206 28.6749 73.2061 28.917 73.0528 29.2196C72.8996 29.5223 72.823 29.9006 72.823 30.3394C72.823 30.7177 72.9302 31.0355 73.1601 31.2927C73.3746 31.5499 73.6505 31.7618 73.957 31.9131C74.2635 32.0644 74.6159 32.1703 74.9837 32.2309C75.3515 32.2914 75.6887 32.3217 75.9952 32.3217C76.3783 32.3217 76.7921 32.2763 77.2365 32.1703C77.6809 32.0644 78.0947 31.898 78.4931 31.6559C78.8915 31.4137 79.2134 31.1111 79.4739 30.7479C79.7344 30.3848 79.8723 29.9308 79.8723 29.3861V26.8288H79.8876ZM87.1669 34.5763H90.6303V13.195H87.1669V34.5763ZM109.541 23.7116C109.847 24.7103 110.001 25.7847 110.001 26.9196C110.001 27.9637 109.863 28.9624 109.587 29.946C109.311 30.9295 108.897 31.792 108.346 32.5335C107.794 33.275 107.089 33.8802 106.231 34.3342C105.388 34.7882 104.377 35.0151 103.227 35.0151C102.706 35.0151 102.17 34.9849 101.633 34.9092C101.097 34.8335 100.591 34.6974 100.101 34.5006C99.6105 34.3039 99.1814 34.0467 98.783 33.7289C98.3846 33.4112 98.0627 32.9875 97.8022 32.473H97.7409V34.5914H94.4614V13.195H97.9248V21.0938H97.9861C98.2313 20.7155 98.5225 20.3826 98.8596 20.08C99.1968 19.7773 99.5799 19.5201 99.9936 19.3234C100.407 19.1115 100.837 18.9602 101.296 18.8392C101.756 18.7332 102.2 18.6727 102.645 18.6727C103.871 18.6727 104.959 18.8846 105.878 19.3234C106.798 19.7471 107.564 20.3372 108.162 21.0938C108.775 21.8353 109.234 22.7129 109.541 23.7116ZM106.537 26.8591C106.537 26.163 106.445 25.4821 106.261 24.8163C106.078 24.1505 105.802 23.5754 105.449 23.061C105.081 22.5465 104.637 22.1379 104.085 21.8353C103.534 21.5326 102.905 21.3662 102.2 21.3662C100.745 21.3662 99.6412 21.8655 98.9056 22.8642C98.17 23.863 97.8022 25.1946 97.8022 26.8439C97.8022 27.6157 97.8942 28.342 98.0934 29.0078C98.2926 29.6736 98.5685 30.2486 98.9516 30.7328C99.3347 31.217 99.7944 31.5953 100.331 31.8677C100.867 32.1401 101.48 32.2914 102.2 32.2914C102.982 32.2914 103.656 32.1249 104.208 31.8072C104.76 31.4894 105.204 31.0808 105.557 30.5664C105.909 30.0519 106.17 29.4769 106.307 28.8262C106.461 28.1907 106.537 27.5249 106.537 26.8591ZM127.471 23.5603C127.823 24.559 128.007 25.6485 128.007 26.8288C128.007 28.0242 127.823 29.1288 127.471 30.1275C127.118 31.1262 126.597 31.9888 125.923 32.7C125.249 33.4112 124.421 33.9862 123.44 34.3947C122.46 34.8033 121.341 35.0151 120.084 35.0151C118.828 35.0151 117.709 34.8033 116.728 34.3947C115.747 33.9862 114.92 33.4263 114.246 32.7C113.571 31.9888 113.05 31.1262 112.698 30.1275C112.345 29.1288 112.161 28.0242 112.161 26.8288C112.161 25.6485 112.345 24.559 112.698 23.5603C113.05 22.5616 113.571 21.6991 114.246 20.9879C114.92 20.2767 115.747 19.7017 116.728 19.2931C117.709 18.8846 118.828 18.6727 120.084 18.6727C121.341 18.6727 122.46 18.8846 123.44 19.2931C124.421 19.7017 125.249 20.2616 125.923 20.9879C126.613 21.6991 127.118 22.5616 127.471 23.5603ZM124.544 26.8288C124.544 26.163 124.452 25.5123 124.283 24.8465C124.115 24.1807 123.839 23.6057 123.486 23.0912C123.119 22.5767 122.659 22.1682 122.092 21.8504C121.525 21.5326 120.866 21.3662 120.084 21.3662C119.318 21.3662 118.644 21.5326 118.077 21.8504C117.51 22.1682 117.05 22.5767 116.682 23.0912C116.314 23.6057 116.054 24.1807 115.885 24.8465C115.717 25.5123 115.625 26.163 115.625 26.8288C115.625 27.5097 115.717 28.1755 115.885 28.8262C116.054 29.4769 116.33 30.0519 116.682 30.5815C117.05 31.096 117.51 31.5197 118.077 31.8374C118.644 32.1552 119.303 32.3217 120.084 32.3217C120.851 32.3217 121.525 32.1552 122.092 31.8374C122.659 31.5197 123.119 31.096 123.486 30.5815C123.854 30.067 124.115 29.4769 124.283 28.8262C124.467 28.1604 124.544 27.4946 124.544 26.8288ZM145.462 23.5603C145.814 24.559 145.998 25.6485 145.998 26.8288C145.998 28.0242 145.814 29.1288 145.462 30.1275C145.11 31.1262 144.589 31.9888 143.914 32.7C143.24 33.4112 142.412 33.9862 141.432 34.3947C140.451 34.8033 139.332 35.0151 138.076 35.0151C136.819 35.0151 135.7 34.8033 134.719 34.3947C133.739 33.9862 132.911 33.4263 132.237 32.7C131.563 31.9888 131.041 31.1262 130.689 30.1275C130.337 29.1288 130.153 28.0242 130.153 26.8288C130.153 25.6485 130.337 24.559 130.689 23.5603C131.041 22.5616 131.563 21.6991 132.237 20.9879C132.911 20.2767 133.739 19.7017 134.719 19.2931C135.7 18.8846 136.819 18.6727 138.076 18.6727C139.332 18.6727 140.451 18.8846 141.432 19.2931C142.412 19.7017 143.24 20.2616 143.914 20.9879C144.589 21.6991 145.11 22.5616 145.462 23.5603ZM142.535 26.8288C142.535 26.163 142.443 25.5123 142.274 24.8465C142.106 24.1807 141.83 23.6057 141.478 23.0912C141.11 22.5767 140.65 22.1682 140.083 21.8504C139.516 21.5326 138.857 21.3662 138.076 21.3662C137.309 21.3662 136.635 21.5326 136.068 21.8504C135.501 22.1682 135.041 22.5767 134.673 23.0912C134.306 23.6057 134.045 24.1807 133.877 24.8465C133.708 25.5123 133.616 26.163 133.616 26.8288C133.616 27.5097 133.708 28.1755 133.877 28.8262C134.045 29.4769 134.321 30.0519 134.673 30.5815C135.041 31.096 135.501 31.5197 136.068 31.8374C136.635 32.1552 137.294 32.3217 138.076 32.3217C138.842 32.3217 139.516 32.1552 140.083 31.8374C140.65 31.5197 141.11 31.096 141.478 30.5815C141.845 30.067 142.106 29.4769 142.274 28.8262C142.443 28.1604 142.535 27.4946 142.535 26.8288ZM160.373 26.7683C159.898 26.4354 159.362 26.163 158.749 25.9663C158.136 25.7696 157.523 25.6031 156.894 25.4518C156.251 25.3156 155.622 25.1794 155.009 25.0584C154.396 24.9373 153.86 24.8011 153.385 24.6195C152.91 24.4531 152.527 24.2412 152.236 23.9689C151.944 23.7116 151.791 23.3636 151.791 22.955C151.791 22.6221 151.898 22.3346 152.098 22.1379C152.297 21.9261 152.542 21.7748 152.833 21.6537C153.124 21.5478 153.446 21.4721 153.768 21.4267C154.105 21.3813 154.396 21.3662 154.626 21.3662C155.392 21.3662 156.082 21.5024 156.68 21.7899C157.277 22.0623 157.66 22.6221 157.814 23.4393H161.415C161.308 22.5767 161.063 21.8504 160.679 21.2451C160.281 20.6399 159.791 20.1405 159.193 19.7622C158.595 19.3839 157.936 19.1115 157.185 18.9451C156.45 18.7786 155.668 18.6879 154.871 18.6879C154.166 18.6879 153.416 18.7635 152.649 18.8997C151.868 19.0359 151.163 19.278 150.519 19.626C149.876 19.9741 149.354 20.428 148.941 21.003C148.527 21.578 148.312 22.2741 148.312 23.1064C148.312 23.8781 148.45 24.5439 148.742 25.0735C149.017 25.6031 149.4 26.0419 149.876 26.3748C150.351 26.7077 150.887 26.9801 151.485 27.1768C152.082 27.3735 152.695 27.54 153.354 27.6913C153.983 27.8275 154.596 27.9637 155.209 28.0847C155.822 28.2058 156.358 28.342 156.833 28.5236C157.308 28.69 157.691 28.917 157.998 29.2045C158.304 29.4769 158.457 29.84 158.488 30.2789C158.503 30.7177 158.396 31.0657 158.166 31.3381C157.936 31.6105 157.63 31.8072 157.277 31.9585C156.91 32.0947 156.526 32.2006 156.113 32.246C155.699 32.2914 155.331 32.3217 155.009 32.3217C154.075 32.3217 153.278 32.1249 152.619 31.7164C151.944 31.323 151.561 30.6118 151.469 29.6131H148.006C148.021 30.5361 148.22 31.323 148.573 31.9888C148.925 32.6546 149.416 33.2144 150.029 33.6684C150.642 34.1224 151.377 34.4553 152.205 34.6671C153.048 34.8789 153.952 35 154.948 35C155.76 35 156.572 34.9092 157.4 34.7276C158.227 34.546 158.978 34.2585 159.653 33.8651C160.327 33.4717 160.879 32.9421 161.308 32.3065C161.737 31.671 161.951 30.8841 161.951 29.9762C161.951 29.2196 161.798 28.5841 161.507 28.0545C161.231 27.5249 160.848 27.1012 160.373 26.7683ZM172.219 21.6386V19.0964H169.093V14.4509H165.629V19.0964H163.024V21.6386H165.629V30.7782C165.645 31.4137 165.721 31.9888 165.829 32.4881C165.936 32.9875 166.15 33.396 166.472 33.7289C166.779 34.0618 167.223 34.3039 167.775 34.4704C168.326 34.6368 169.062 34.7276 169.966 34.7276C170.349 34.7276 170.717 34.7125 171.085 34.6671C171.453 34.6217 171.82 34.5914 172.204 34.546V31.9131C171.958 31.9736 171.713 32.0039 171.483 32.019C171.238 32.0342 170.993 32.0342 170.763 32.0342C170.38 32.0342 170.073 31.9888 169.859 31.898C169.629 31.8072 169.476 31.671 169.353 31.4894C169.246 31.3078 169.169 31.096 169.139 30.8236C169.108 30.5664 169.093 30.2486 169.093 29.9006V21.6386H172.219ZM11.4322 25.9814C11.1104 26.738 10.9418 27.5551 10.9418 28.3722C10.9418 32.019 14.1447 34.9849 18.0985 34.9849C22.1748 34.9849 25.2398 31.8828 25.2398 27.7821C25.2398 25.8452 24.4735 24.0294 23.079 22.6524C20.7343 20.3372 16.5507 20.1859 12.505 20.0346C7.60105 19.853 3.37143 19.7017 3.37143 15.8279C3.37143 13.5279 5.51689 10.3956 8.82703 7.83831C12.5509 4.97838 16.9798 3.32901 20.9489 3.32901C23.6307 3.32901 25.6382 4.47903 26.0673 6.24946C26.3432 7.39948 25.96 8.73109 24.9486 10.1232C23.7839 11.7121 21.8224 13.2706 19.2785 14.6476L19.3551 14.7838L20.8416 17.4773L20.8876 17.5681C23.9065 15.9339 26.1899 14.0878 27.6611 12.0752C29.6839 9.3061 29.6839 6.97579 29.3315 5.49287C28.5652 2.14872 25.2704 0 20.9489 0C16.2442 0 11.0644 1.90661 6.75819 5.22049C2.52857 8.47384 0 12.4384 0 15.8279C0 19.0056 1.47117 21.1695 4.39819 22.259C6.65092 23.1064 9.51664 23.2123 12.2751 23.3031C18.7881 23.53 21.899 24.3623 21.899 28.4328C21.899 30.5664 20.3359 32.0644 18.1138 32.0644C15.9224 32.0644 14.3439 30.642 14.3439 28.69C14.3439 28.2663 14.4359 27.661 14.5891 27.1768L11.4322 25.9814ZM181 30.9295V33.6533C181 34.2434 180.51 34.7276 179.912 34.7276H177.154C176.556 34.7276 176.065 34.2434 176.065 33.6533V30.9295C176.065 30.3394 176.556 29.8552 177.154 29.8552H179.912C180.51 29.84 181 30.3243 181 30.9295ZM180.065 31.5651L179.667 31.1716L178.165 32.6092L177.429 31.9131L177.031 32.3065L178.18 33.396L180.065 31.5651Z" fill="#0D1119"/>
</svg>
