<svg width="52" height="52" viewBox="0 0 52 52" fill="none" xmlns="http://www.w3.org/2000/svg">
<path d="M26.0001 50.381C39.4654 50.381 50.3812 39.4652 50.3812 25.9998C50.3812 12.5345 39.4654 1.61867 26.0001 1.61867C12.5347 1.61867 1.6189 12.5345 1.6189 25.9998C1.6189 39.4652 12.5347 50.381 26.0001 50.381Z" fill="#009AFE"/>
<path d="M13.7773 30.7538C13.759 30.017 13.8874 29.31 14.2413 28.6573C14.9123 27.4168 15.9793 26.7664 17.3634 26.6174C18.2378 26.5234 19.0976 26.6029 19.8948 26.9995C21.2858 27.6928 21.9829 28.8461 22.0746 30.3823C22.0807 30.4886 22.083 30.594 22.0876 30.7003C22.028 31.541 21.7658 32.3053 21.2407 32.9672C20.6018 33.7766 19.7511 34.2183 18.7468 34.375C17.6913 34.5409 16.6649 34.4377 15.724 33.9035C14.5095 33.2141 13.9119 32.1219 13.7773 30.7538ZM19.8505 30.5245C19.8451 30.4183 19.8428 30.3128 19.8352 30.2065C19.7626 29.2718 19.0762 28.5625 18.1606 28.4762C17.1479 28.3806 16.3553 28.8958 16.0871 29.8229C15.9932 30.1649 15.971 30.5227 16.0221 30.8738C16.123 31.6335 16.499 32.1975 17.2518 32.4498C18.383 32.8311 19.8665 32.2541 19.8505 30.526V30.5245Z" fill="#FDFDFE"/>
<path d="M22.7954 30.701C22.7954 29.4652 22.8069 28.2293 22.7954 26.9934C22.7954 26.7741 22.8481 26.7129 23.0706 26.7167C24.0328 26.7313 24.9958 26.703 25.9573 26.7343C27.0059 26.7687 27.9911 27.04 28.7852 27.773C29.2964 28.2512 29.6361 28.8842 29.7521 29.5745C29.8201 29.946 29.8566 30.3226 29.8614 30.7003C29.7979 31.0534 29.7765 31.4118 29.6688 31.7581C29.2308 33.1621 28.199 33.8561 26.8279 34.1442C26.4475 34.2209 26.0602 34.2578 25.6722 34.2543C24.7979 34.2543 23.9235 34.2482 23.0492 34.2589C22.8535 34.2589 22.7969 34.213 22.7985 34.012C22.8061 32.9083 22.7977 31.8085 22.7954 30.701ZM25.0317 30.4962C25.0317 31.1077 25.0394 31.7145 25.0272 32.3229C25.0272 32.5147 25.0868 32.5621 25.2679 32.5522C25.5323 32.5505 25.7964 32.5339 26.059 32.5025C26.8554 32.3863 27.3927 31.9056 27.5585 31.142C27.6188 30.8661 27.6394 30.583 27.6197 30.3013C27.5478 29.3077 27.0419 28.7024 26.1385 28.5343C25.842 28.4894 25.5426 28.4667 25.2427 28.4662C25.0585 28.4594 25.0264 28.5312 25.0287 28.6955C25.0371 29.2963 25.0317 29.8978 25.0317 30.4962Z" fill="#FDFDFE"/>
<path d="M31.079 30.7278C31.2074 30.4083 31.3426 30.0904 31.4649 29.7678C31.7431 29.0326 32.016 28.295 32.2896 27.5582C32.366 27.3458 32.4524 27.1348 32.512 26.917C32.551 26.7733 32.6175 26.7183 32.7673 26.7198C33.4475 26.7252 34.1285 26.7274 34.8095 26.7198C34.9677 26.7198 35.0128 26.7909 35.0602 26.92C35.5336 28.202 36.0107 29.4822 36.4917 30.7607C36.5039 30.7833 36.5188 30.8043 36.5361 30.8233C36.7371 31.3813 36.9358 31.9415 37.1414 32.4987C37.333 33.0199 37.5297 33.5397 37.7314 34.0579C37.788 34.2038 37.775 34.2612 37.6 34.2589C36.9722 34.2517 36.3447 34.2517 35.7175 34.2589C35.666 34.2664 35.6136 34.2534 35.5716 34.2226C35.5295 34.1919 35.5013 34.1459 35.4928 34.0945C35.4164 33.85 35.3308 33.6092 35.2543 33.3654C35.2199 33.2546 35.1779 33.1904 35.038 33.1911C34.1897 33.1988 33.3413 33.1965 32.4929 33.1911C32.4457 33.1846 32.3978 33.197 32.3597 33.2256C32.3216 33.2543 32.2964 33.2968 32.2896 33.344C32.2132 33.5977 32.1238 33.8469 32.0473 34.0999C32.019 34.1947 31.9839 34.2528 31.87 34.2528C31.1905 34.2528 30.5118 34.2528 29.8064 34.2528C30.2344 33.0627 30.6563 31.8949 31.079 30.7278ZM33.7471 28.5579C33.7127 28.7207 33.6806 28.8843 33.644 29.0471C33.4819 29.7602 33.2236 30.445 33.0111 31.1428C32.9026 31.4974 32.898 31.4959 33.2557 31.4967H34.049C34.6498 31.4967 34.6459 31.4967 34.4725 30.9349C34.2286 30.1492 33.9329 29.378 33.7471 28.5579Z" fill="#FDFDFE"/>
<path d="M38.7638 30.7011C38.2693 29.777 37.7259 28.8813 37.1924 27.9801C36.9547 27.5774 36.7262 27.1692 36.4709 26.7229C37.2673 26.7229 38.0156 26.7229 38.7638 26.7229C38.851 26.7229 38.8877 26.7733 38.9213 26.839C39.3699 27.7241 39.9149 28.5602 40.297 29.4774C40.3605 29.6303 40.4033 29.7831 40.4698 29.9788C40.8405 28.8323 41.4978 27.88 42.0137 26.8543C42.0315 26.8105 42.0632 26.7737 42.1039 26.7496C42.1446 26.7254 42.1921 26.7152 42.2391 26.7206C42.9461 26.7267 43.6531 26.7206 44.3616 26.7206C44.3883 26.8406 44.3058 26.9101 44.2607 26.9888C43.6065 28.1404 42.9502 29.2909 42.2919 30.4404C42.2437 30.5245 42.2047 30.6132 42.1612 30.6988C41.9999 30.9716 41.8417 31.2452 41.6766 31.5158C41.6347 31.6035 41.6191 31.7014 41.6315 31.7978C41.6315 32.5384 41.6254 33.2798 41.6315 34.0212C41.6315 34.2038 41.5879 34.2612 41.4022 34.2581C40.776 34.2459 40.1498 34.2459 39.5236 34.2581C39.3325 34.2619 39.2897 34.2 39.2943 34.0196C39.3042 33.3578 39.2843 32.6959 39.3042 32.0325C39.323 31.7424 39.2445 31.4543 39.081 31.2139C38.9694 31.0511 38.8716 30.8738 38.7638 30.7011Z" fill="#FDFDFE"/>
<path d="M9.63949 30.701C9.63949 30.0384 9.63949 29.3757 9.65172 28.7139C9.65172 28.561 9.60127 28.5205 9.45453 28.5228C8.91569 28.5304 8.37686 28.5228 7.83803 28.5289C7.67676 28.5289 7.62479 28.4884 7.62861 28.3225C7.64008 27.864 7.63931 27.4054 7.62861 26.9468C7.62861 26.7817 7.66301 26.7175 7.84414 26.7175C9.75184 26.7236 11.6598 26.7236 13.568 26.7175C13.7445 26.7175 13.7912 26.771 13.7873 26.9415C13.7766 27.4 13.7766 27.8586 13.7873 28.3172C13.7912 28.48 13.7438 28.5289 13.5795 28.5266C13.0406 28.5167 12.5018 28.5266 11.963 28.5197C11.817 28.5197 11.7642 28.5564 11.7665 28.7108C11.7765 29.3727 11.7757 30.0353 11.778 30.698C11.778 31.7917 11.7665 32.8854 11.778 33.9791C11.778 34.1947 11.7314 34.265 11.5051 34.2573C10.9587 34.2397 10.4114 34.2443 9.86495 34.2573C9.68687 34.2611 9.64636 34.2015 9.64713 34.0334C9.64866 32.9236 9.64407 31.8123 9.63949 30.701Z" fill="#FDFDFE"/>
<path d="M7.73333 20.4632V18.1818C7.75931 17.7041 7.75931 17.7041 8.25076 17.7041C8.72462 17.7041 9.19925 17.7171 9.67236 17.6988C9.91005 17.6896 10.014 17.753 9.97196 17.9976C9.9696 18.0416 9.97216 18.0857 9.9796 18.1291V19.5048C9.9796 20.4839 9.96814 21.463 9.9796 22.4413C9.98419 22.786 10.0446 23.1345 10.3618 23.3584C11.0496 23.8422 12.0432 23.4348 12.1418 22.5979C12.2641 21.5707 12.18 20.5343 12.1861 19.5063V18.1275C12.2098 17.7026 12.2098 17.7026 12.6524 17.7026C13.2065 17.7026 13.7606 17.7026 14.3147 17.7026C14.3996 17.7026 14.5195 17.6544 14.5387 17.8073V19.5583C14.4951 20.7422 14.586 21.9276 14.4852 23.1123C14.2559 24.2588 13.529 24.9268 12.4384 25.2317C11.5841 25.4698 10.6832 25.4866 9.82063 25.2806C8.50068 24.9749 7.77231 24.0662 7.74326 22.7095C7.72645 21.9628 7.73333 21.213 7.73333 20.4632Z" fill="#FDFDFE"/>
<path d="M26.3416 18.2919C26.4436 18.6358 26.5713 18.9715 26.7238 19.2962C26.8529 19.7313 27.0094 20.1579 27.1923 20.5733L28.0414 22.8777C28.0842 22.9931 28.127 23.107 28.1706 23.2216C28.4144 23.8835 28.6582 24.5454 28.9135 25.2371C28.1798 25.2371 27.4759 25.2371 26.7735 25.2371C26.6642 25.2371 26.6458 25.169 26.6206 25.0926C26.5396 24.8511 26.4502 24.6111 26.3783 24.3665C26.3378 24.2274 26.2759 24.1693 26.1215 24.1709C25.2915 24.1785 24.4607 24.177 23.6299 24.1709C23.5045 24.1709 23.4426 24.2076 23.406 24.3283C23.3372 24.5538 23.2477 24.7739 23.1767 24.9994C23.1346 25.1369 23.0666 25.1882 22.916 25.1859C22.3331 25.1752 21.75 25.1752 21.1666 25.1859C20.964 25.1904 20.9289 25.1461 21.003 24.9566C21.3989 23.9278 21.7826 22.893 22.1708 21.8619C22.1984 21.7855 22.2205 21.7091 22.2473 21.6326L23.2409 18.9774C23.4074 18.6163 23.5476 18.2437 23.6605 17.8623C23.714 17.7362 23.8034 17.6965 23.9448 17.6988C24.586 17.7079 25.2273 17.711 25.8685 17.6988C26.0734 17.695 26.1742 17.7553 26.2094 17.9579C26.2414 18.0736 26.2857 18.1856 26.3416 18.2919ZM24.0357 22.4688H25.7615C25.4841 21.4752 25.0935 20.5297 24.8963 19.5209C24.7007 20.5305 24.3063 21.4744 24.0357 22.4688Z" fill="#FDFDFE"/>
<path d="M16.5495 17.8662C17.0295 17.6972 17.5156 17.5604 18.0292 17.552C18.7236 17.5389 19.4124 17.6793 20.0462 17.9632C20.105 17.9999 20.1654 18.0351 20.2243 18.0733C20.702 18.379 20.702 18.379 20.4253 18.8513C20.422 18.8594 20.4199 18.8679 20.4192 18.8766C20.2319 19.1433 20.037 19.4055 19.8605 19.6783C19.7688 19.8189 19.7137 19.8526 19.5685 19.7211C19.3599 19.5293 19.1112 19.3863 18.8404 19.3025C18.5697 19.2187 18.2837 19.1962 18.0032 19.2365C17.6906 19.2732 17.495 19.4207 17.4514 19.6485C17.4032 19.8969 17.5278 20.0971 17.8244 20.2515C18.0605 20.3738 18.3196 20.4342 18.5711 20.516C19.3056 20.7575 20.0233 21.0281 20.5025 21.6884C21.36 23.4188 20.3649 25.1935 18.4121 25.3869C17.2657 25.5 16.1957 25.2791 15.2533 24.5859C14.9193 24.3413 14.9216 24.3123 15.1654 23.989C15.3687 23.7199 15.5659 23.4448 15.7654 23.1727C15.9946 22.9044 15.9992 22.9037 16.2667 23.1452C16.5021 23.3596 16.7781 23.5246 17.0784 23.6305C17.4422 23.7574 17.816 23.8078 18.1951 23.6962C18.4419 23.6236 18.6139 23.4669 18.6582 23.2063C18.6866 23.0799 18.674 22.9477 18.6223 22.8289C18.5707 22.7101 18.4826 22.6107 18.3709 22.5452C18.2059 22.4428 18.0284 22.3622 17.8427 22.3052C17.4514 22.173 17.0486 22.0706 16.6726 21.8917C16.0734 21.6066 15.5758 21.2245 15.3733 20.5534C15.2747 20.2263 15.319 19.8915 15.3167 19.5598C15.4275 19.0577 15.6362 18.6091 16.0352 18.2682C16.2002 18.1275 16.3776 17.9999 16.5495 17.8662Z" fill="#FDFDFE"/>
</svg>
